<svg width="256" height="256" viewBox="0 0 256 256" fill="none" xmlns="http://www.w3.org/2000/svg">
<path d="M148.469 32.4621V13.8866H155.142V0H100.001V13.8866H106.674V32.5974C54.6447 42.5615 15.2843 88.3241 15.2843 143.284C15.2843 205.548 65.7359 256 128 256C190.264 256 240.716 205.548 240.716 143.284C240.716 88.0085 200.95 42.0655 148.469 32.4621ZM127.91 201.851C95.6732 201.851 69.5682 175.746 69.5682 143.51C69.5682 111.273 95.6732 85.168 127.91 85.168C160.147 85.168 186.252 111.273 186.252 143.51C186.252 175.746 160.147 201.851 127.91 201.851Z" fill="#FF282D"/>
</svg>
